# xmcd
#
# Track frame offsets:
#	150
#	12151
#	34759
#	52003
#	68798
#	84861
#	103446
#	121174
#	141481
#	164604
#	182862
#	196755
#	214430
#	232298
#	260067
#	277127
#
# Disc length: 3925 seconds
#
# Revision: 2578789708
# Processed by: cddbd v1.5.2PL0 Copyright (c) Steve Scherf et al.
# Submitted via: EZCDAudioConverter 9.0.5.1
#
DISCID=fd0f5310
DTITLE=Various Artist - Favourites In Originals 2 (HK) 3CD2 DE-Magnetic (EZ 9.0-WAV)
DYEAR=2016
DGENRE=POP
TTITLE0=Crystal Gayle - Don't It Make My Brown Eyes Blue (劉美君 - 你說是甜我說苦)
TTITLE1=Dan Fogelberg - Seeing You Again (張學友 - 再度重遇你)
TTITLE2=Elton John - Sorry Seems To Be The Hardest Word (杜德偉 - 不必對不起)
TTITLE3=Paul Davis (3) - I Go Crazy (黎明 - 心愛)
TTITLE4=Mungo Jerry - In The Summertime (林子祥 - 紅日我愛你)
TTITLE5=Diana Ross - I'm Still Waiting (王靖雯 - 又繼續等)
TTITLE6=Cocteau Twins - Bluebeard (王菲 - 胡思亂想)
TTITLE7=Hideaki Tokunaga - 永恆的光輝 (譚詠麟 - Don't Say Goodbye)
TTITLE8=Kokia - Arigatou (鄭秀文 - Arigatou)
TTITLE9=Air Supply - All Out Of Love (譚詠麟 - 小風波)
TTITLE10=Olivia Newton-John - Hopelessly Devoted To You (彭羚 - 一世愛著你)
TTITLE11=Sandra - No Taboo (關淑怡 - 製造迷夢)
TTITLE12=Swing Out Sister - La La (Means I Love You) (草蜢 - La La Means I Love 
TTITLE12=You)
TTITLE13=The Beautiful South - Song For Whoever (軟硬天師 - For You)
TTITLE14=Minnie Riperton - Lovin' You (草蜢 - 離不開)
TTITLE15=Julie Andrews - Edelweiss (盧冠廷 - 願)
EXTD=
EXTT0=
EXTT1=
EXTT2=
EXTT3=
EXTT4=
EXTT5=
EXTT6=
EXTT7=
EXTT8=
EXTT9=
EXTT10=
EXTT11=
EXTT12=
EXTT13=
EXTT14=
EXTT15=
PLAYORDER=
